<svg viewBox="440 0 2760 2080" xmlns="http://www.w3.org/2000/svg" xmlns:xlink="http://www.w3.org/1999/xlink" xmlns:blush="http://design.blush" overflow="visible" width="2760px" height="2080px"><defs><rect id="mastersceneskeeping-in-touch-path-1" x="0" y="0" width="569" height="356"/></defs><g id="Master/Scenes/Keeping in Touch" stroke="none" stroke-width="1" fill="none" fill-rule="evenodd" blush:viewBox="448 -7.999999999999773 2735.9999999999995 2080" blush:i="0"><g id="Background" blush:i="0.0"><path d="M1013.485,1606 C1015.14185,1606 1016.485,1607.34395 1016.485,1609.0008 C1016.485,1610.59848 1015.23608,1611.90446 1013.66127,1611.99571 L1013.485,1612.0008 L933.202,1612 L933.202,1671.462 L1060.65059,1671.4628 C1062.24828,1671.4628 1063.55426,1672.71172 1063.6455,1674.28653 L1063.65059,1674.4628 C1063.65059,1676.06048 1062.40167,1677.36646 1060.82687,1677.45771 L1060.65059,1677.4628 L1016.485,1677.462 L1016.485,1736.926 L1100.405,1736.9266 C1102.06185,1736.9266 1103.405,1738.26975 1103.405,1739.9266 C1103.405,1741.52428 1102.15608,1742.83026 1100.58127,1742.92151 L1100.405,1742.9266 L933.202,1742.926 L933.202,1802.386 L1031.15928,1802.3866 C1032.75696,1802.3866 1034.06294,1803.63552 1034.15419,1805.21033 L1034.15928,1805.3866 C1034.15928,1806.98428 1032.91036,1808.29026 1031.33555,1808.38151 L1031.15928,1808.3866 L842.84,1808.3866 C841.183146,1808.3866 839.84,1807.04245 839.84,1805.3856 C839.84,1803.78792 841.08892,1802.48194 842.663727,1802.39069 L842.84,1802.3856 L927.202,1802.385 L927.202,1742.925 L842.84,1742.9256 C841.242319,1742.9256 839.936339,1741.67668 839.845093,1740.10187 L839.84,1739.9256 C839.84,1739.35179 840.001101,1738.8156 840.280541,1738.3598 L840.280541,1676.0278 C840.001101,1675.572 839.84,1675.03581 839.84,1674.462 C839.84,1672.86432 841.08892,1671.55834 842.663727,1671.46709 L842.84,1671.462 L927.202,1671.461 L927.202,1612 L868.53,1612 C866.932319,1612 865.626339,1610.75108 865.535093,1609.17627 L865.53,1609 C865.53,1607.40232 866.77892,1606.09634 868.353727,1606.00509 L868.53,1606 L1013.485,1606 Z M1010.485,1677.463 L846.281,1677.463 L846.281,1736.925 L1010.485,1736.925 L1010.485,1677.463 Z" id="Bricks" fill-opacity=".08" fill="#000" fill-rule="nonzero" blush:i="0.0.0"/><path d="M2099.316,770.244 L2464.996,770.244 L2464.996,1244.071 L2099.316,1244.072 L2099.316,770.244 Z M2872.84,770.244 L2872.84,1244.072 L2507.16,1244.071 L2507.16,770.244 L2872.84,770.244 Z M2872.84,727.527 L2507.16,727.528 L2507.16,210.151 L2872.84,210.152 L2872.84,727.527 Z M2464.996,210.151 L2464.996,727.528 L2099.316,727.527 L2099.316,210.152 L2464.996,210.151 Z" id="Window" fill="#F0F1FF" fill-rule="nonzero" opacity=".5" blush:i="0.0.1"/><path d="M2313.484,387.0036 L2117,387.0036 C2117,387.0036 2131.4,327.9916 2182.216,327.9916 C2219.868,327.9916 2239.404,351.8036 2247.012,364.1436 C2261.864,358.3356 2293.84,351.2836 2313.484,387.0036" id="Fill-17" fill="#FFF" blush:i="0.0.2"/><path d="M2608.306,1000.5192 C2613.35,1000.5192 2618.074,1001.8872 2622.174,1004.2552 C2630.01,990.5912 2644.462,981.3952 2661.046,981.3952 C2676.534,981.3952 2690.19,989.3992 2698.306,1001.5832 C2702.594,986.9032 2715.862,976.1992 2731.582,976.1992 C2749.422,976.1992 2764.106,989.9872 2766.082,1007.7272 C2767.518,1007.4952 2768.978,1007.3432 2770.478,1007.3432 C2781.362,1007.3432 2790.794,1013.6432 2795.53,1022.8712 L2580.778,1022.8712 C2583.718,1010.0672 2594.91,1000.5192 2608.306,1000.5192" id="Fill-18" fill="#FFF" blush:i="0.0.3"/><path d="M2927.34,165.572 L2044.34,165.572 L2044.34,1295.572 L2927.34,1295.572 L2927.34,165.572 Z M2920.34,172.571 L2920.34,1288.572 L2051.34,1288.572 L2051.34,172.571 L2920.34,172.571 Z" id="Window-Frame" fill-opacity=".08" fill="#000" fill-rule="nonzero" blush:i="0.0.4"/><path d="M1959.4854,803 C1961.14225,803 1962.4854,804.343946 1962.4854,806.0008 C1962.4854,807.598481 1961.23648,808.904461 1959.66167,808.995707 L1959.4854,809.0008 L1879.2034,809 L1879.2034,868.462 L2046.4054,868.4628 C2048.00308,868.4628 2049.30906,869.71172 2049.40031,871.286527 L2049.4054,871.4628 C2049.4054,873.060481 2048.15648,874.366461 2046.58167,874.457707 L2046.4054,874.4628 L1962.4854,874.462 L1962.4854,933.926 L2046.4054,933.9266 C2048.06225,933.9266 2049.4054,935.269746 2049.4054,936.9266 C2049.4054,938.524281 2048.15648,939.830261 2046.58167,939.921507 L2046.4054,939.9266 L1879.2034,939.926 L1879.2034,999.386 L2046.4054,999.3866 C2048.00308,999.3866 2049.30906,1000.63552 2049.40031,1002.21033 L2049.4054,1002.3866 C2049.4054,1003.98428 2048.15648,1005.29026 2046.58167,1005.38151 L2046.4054,1005.3866 L1792.2824,1005.387 L1792.2824,1064.849 L1876.2032,1064.8496 C1877.80088,1064.8496 1879.10686,1066.09852 1879.19811,1067.67333 L1879.2032,1067.8496 C1879.2032,1069.44728 1877.95428,1070.75326 1876.37947,1070.84451 L1876.2032,1070.8496 L1789.2832,1070.8496 C1787.68552,1070.8496 1786.37954,1069.60068 1786.28829,1068.02587 L1786.2832,1067.8496 L1786.2824,1005.385 L1739.959,1005.3856 C1738.30215,1005.3856 1736.959,1004.04245 1736.959,1002.3856 C1736.959,1000.78792 1738.20792,999.481939 1739.78273,999.390693 L1739.959,999.3856 L1873.2024,999.385 L1873.2024,939.925 L1739.959,939.9256 C1738.36132,939.9256 1737.05534,938.67668 1736.96409,937.101873 L1736.959,936.9256 C1736.959,935.327919 1738.20792,934.021939 1739.78273,933.930693 L1739.959,933.9256 L1786.2814,933.925 L1786.2814,874.461 L1706.0004,874.462 C1704.34355,874.462 1703.0004,873.118854 1703.0004,871.462 C1703.0004,869.864319 1704.24932,868.558339 1705.82413,868.467093 L1706.0004,868.462 L1873.2024,868.461 L1873.2024,809 L1814.5304,809 C1812.93272,809 1811.62674,807.75108 1811.53549,806.176273 L1811.5304,806 C1811.5304,804.402319 1812.77932,803.096339 1814.35413,803.005093 L1814.5304,803 L1959.4854,803 Z M1956.4854,874.463 L1792.2814,874.463 L1792.2814,933.925 L1956.4854,933.925 L1956.4854,874.463 Z" id="Bricks" fill-opacity=".08" fill="#000" fill-rule="nonzero" blush:i="0.0.5"/><path d="M3094.485,202 C3096.14185,202 3097.485,203.343946 3097.485,205.0008 C3097.485,206.598481 3096.23608,207.904461 3094.66127,207.995707 L3094.485,208.0008 L3014.202,208 L3014.202,267.462 L3141.65059,267.4628 C3143.24828,267.4628 3144.55426,268.71172 3144.6455,270.286527 L3144.65059,270.4628 C3144.65059,272.060481 3143.40167,273.366461 3141.82687,273.457707 L3141.65059,273.4628 L3097.485,273.462 L3097.485,332.926 L3181.405,332.9266 C3183.06185,332.9266 3184.405,334.269746 3184.405,335.9266 C3184.405,337.524281 3183.15608,338.830261 3181.58127,338.921507 L3181.405,338.9266 L3014.202,338.926 L3014.202,398.386 L3112.15928,398.3866 C3113.75696,398.3866 3115.06294,399.63552 3115.15419,401.210327 L3115.15928,401.3866 C3115.15928,402.984281 3113.91036,404.290261 3112.33555,404.381507 L3112.15928,404.3866 L2923.84,404.3866 C2922.18315,404.3866 2920.84,403.042454 2920.84,401.3856 C2920.84,399.787919 2922.08892,398.481939 2923.66373,398.390693 L2923.84,398.3856 L3008.202,398.385 L3008.201,338.925 L2923.84,338.9256 C2922.24232,338.9256 2920.93634,337.67668 2920.84509,336.101873 L2920.84,335.9256 C2920.84,335.351785 2921.0011,334.815597 2921.28054,334.359799 L2921.28054,272.027801 C2921.0011,271.572003 2920.84,271.035815 2920.84,270.462 C2920.84,268.864319 2922.08892,267.558339 2923.66373,267.467093 L2923.84,267.462 L3008.202,267.461 L3008.202,208 L2949.53,208 C2947.93232,208 2946.62634,206.75108 2946.53509,205.176273 L2946.53,205 C2946.53,203.402319 2947.77892,202.096339 2949.35373,202.005093 L2949.53,202 L3094.485,202 Z M3091.485,273.463 L2927.281,273.463 L2927.281,332.925 L3091.485,332.925 L3091.485,273.463 Z" id="Bricks" fill-opacity=".08" fill="#000" fill-rule="nonzero" blush:i="0.0.6"/><g id="Lamp" transform="translate(812.000000, 0.000000)" blush:i="0.0.7"><path d="M231,621.003035 C231,640.879963 214.884674,657 195,657 C175.115326,657 159,640.879963 159,621.003035 C159,601.120037 175.115326,585 195,585 C214.884674,585 231,601.120037 231,621.003035" id="Fill-5" fill="#FFF" blush:i="0.0.7.0"/><polygon id="Fill-3" fill="#090E2B" points="193 490 198 490 198 0 193 0" blush:i="0.0.7.1"/><path d="M186.507779,462.266165 C168.684301,497.567794 118.938893,573.423586 2.3418784,627.372619 C-1.53986671,629.171929 -0.31627314,635 3.95726302,635 L386.043944,635 C390.31748,635 391.541074,629.171929 387.653301,627.372619 C271.056287,573.423586 221.316907,497.567794 203.4874,462.266165 C199.943198,455.244612 190.058009,455.244612 186.507779,462.266165" id="Fill-1" fill="#0084FF" blush:i="0.0.7.2"/></g><g id="Medium Plants" transform="translate(2111.000000, 1253.000000) scale(1 1)" blush:width="845" blush:height="800" blush:component="Medium Plants" blush:i="0.0.8" blush:value="Plant 3" blush:viewBox="211.25 80.76109936575062 426.7249999999999 723.0443974630018"><g id="Medium Plants/Plant 3" stroke="none" stroke-width="1" fill="none" fill-rule="evenodd" blush:viewBox="211.25 80.76109936575062 426.7249999999999 723.0443974630018" blush:i="0.0.8.0"><g id="Group" transform="translate(215.000000, 84.000000)" blush:i="0.0.8.0.0"><path d="M112.880533,293.771571 C72.2193038,211.163092 32.755718,181.121219 20.2319955,171.471577 C31.7926281,194.631785 123.101369,458.278287 135.733483,527.310338 C93.3433125,443.747754 71.4872134,425.696285 63.5834793,417.566804 C42.1911559,395.561848 15.4147691,379.927685 0,372.207616 C6.74873695,381.58313 85.7416546,476.436559 113.680146,559.433088 L135.838322,599 L246.627421,599 C246.627421,599 258.188054,560.566979 276.492093,543.592439 C294.796131,526.619679 363.774357,441.65075 374.3719,391.46763 C348.802317,421.08304 267.492695,526.619679 253.027882,543.592439 C288.674647,442.658364 294.026586,433.333145 324.490079,377.359528 C354.953572,321.384132 418.11073,239.428478 421,237.498906 C388.244282,254.870397 291.937958,315.57786 246.266707,435.847441 C227.181252,486.106622 221.197939,518.114609 221.197939,518.114609 C221.197939,518.114609 241.824632,417.660531 240.859765,319.222084 C239.896675,220.783637 246.627421,0 246.627421,0 C246.627421,0 202.715749,77.0946758 186.442858,202.073242 C180.425007,248.291359 175.348107,438.140602 177.274287,484.065846 C177.274287,484.065846 152.358334,373.975203 112.880533,293.771571 Z" id="Fill-1" fill="#009BA0" blush:i="0.0.8.0.0.0"/><path d="M254.50609,716 L126.947716,716 C108.198988,716 93,690.078415 93,671.268722 L93,544 L292,544 L292,667.710997 C292,688.399168 275.127209,716 254.50609,716" id="Fill-4" fill="#FF00A4" blush:i="0.0.8.0.0.1"/></g></g></g><g id="Table" transform="translate(545.000000, 1458.053163)" blush:i="0.0.9"><rect id="Rectangle" fill="#F0F1FF" x="0" y="0" width="1057" height="40" rx="13" blush:i="0.0.9.0"/><rect id="Rectangle-Copy-3" fill="#BACCFF" x="0" y="0" width="369" height="40" rx="13" blush:i="0.0.9.1"/><rect id="Rectangle" fill="#C7D2F2" x="728" y="40" width="239" height="552" blush:i="0.0.9.2"/><rect id="Rectangle-Copy-2" fill="#C7D2F2" x="86" y="40" width="239" height="552" blush:i="0.0.9.3"/></g><g id="Monitor" transform="translate(791.000000, 936.053163)" blush:i="0.0.10"><rect id="Rectangle" fill="#FFB201" x="0" y="0" width="619" height="441" rx="20" blush:i="0.0.10.0"/><rect id="Rectangle-Copy-5" fill="#FFF" x="26" y="24" width="569" height="356" blush:i="0.0.10.1"/><g id="Character" transform="translate(26.000000, 24.000000)" blush:i="0.0.10.2"><mask id="mastersceneskeeping-in-touch-mask-2" fill="#ffffff" blush:i="0.0.10.2.0"><use xlink:href="#mastersceneskeeping-in-touch-path-1" fill="#ffffff" blush:i="0.0.10.2.0.0"/></mask><use id="Mask" fill="#FBFDFF" xlink:href="#mastersceneskeeping-in-touch-path-1" blush:i="0.0.10.2.1"/><g id="Character-1" mask="url(#mastersceneskeeping-in-touch-mask-2)" blush:i="0.0.10.2.2"><g transform="translate(98.896484, -8.853963)" blush:i="0.0.10.2.2.0"><path d="M213.972307,222.517402 C213.972307,222.517402 207.254058,264.694548 213.762956,277.264565 C218.945634,287.273819 249.523831,300.962858 249.523831,300.962858 L255,330.345184 L141.468913,342 C128.331918,339.085547 80.7772962,326.899195 95.9567113,307.851838 C111.135125,288.804481 143.290964,283.552071 148.517715,275.109448 C158.553518,258.900611 160.387589,225.951401 160.111126,213.505277 C160.111126,210.413978 213.972307,222.517402 213.972307,222.517402" id="neck" fill="#09B9C6" blush:i="0.0.10.2.2.0.0"/><g id="t-shirt" stroke-width="1" fill="none" transform="translate(31.000000, 287.000000)" blush:i="0.0.10.2.2.0.1"><path d="M89.4468,0.0136764189 C102.8688,2.67167642 149.2358,34.6536764 177.6858,31.5776764 C192.0658,30.0236764 203.8198,5.46367642 204.2708,4.91467642 C204.576334,4.54492662 218.843092,11.9835019 231.055751,19.7322048 L231.0582,19.7031764 L231.0582,19.7031764 C231.135221,19.7651796 231.222432,19.8308242 231.319419,19.9003197 C231.863961,20.2463015 232.403006,20.5926111 232.936312,20.9387644 C239.599781,25.0355541 258.899602,36.4407721 265.3982,68.0261764 C268.0352,80.8401764 285.0832,128.800176 300.1392,167.597176 C288.335776,185.699803 275.3929,186.242882 241.16511,186.259174 L237.927661,186.259678 L237.927661,186.259678 C229.857644,186.259678 155.328216,189.846496 72.662627,186.259678 C38.2055127,184.764601 8.73269423,183.264728 1.25005975,158 C-2.84486358,144.173704 13.2909823,83.3129264 12.1768,74.8846764 C8.8578,49.7816764 26.8658,32.3416764 33.1348,27.1536764 C54.0788,9.82167642 87.2148,-0.427323581 89.4468,0.0136764189 Z" id="T-Shirt" fill="#FF0057" blush:i="0.0.10.2.2.0.1.0"/><path d="M255.6453,102.608676 C258.0363,112.136676 258.064419,120.171504 257.606419,129.951504 C256.453079,147.259988 253.873594,145.961005 249.782594,166.732005 C247.698594,177.309005 246.534594,183.736005 245.868594,185.399005 C244.964594,187.656005 245.234594,181.318005 247.753594,166.371005 C250.267594,149.368005 252.892902,151.271638 254.510902,134.292638 C256.128902,117.313638 255.5623,114.940676 252.8243,102.383676 C250.3413,91.3246764 246.4643,81.4866764 243.1413,70.6196764 C242.9503,69.1046764 239.1053,59.6106764 241.0533,61.0176764 C245.5873,74.8956764 251.9913,88.4526764 255.6453,102.608676 Z" id="Fill-15" fill="#090E2B" blush:i="0.0.10.2.2.0.1.1"/><path d="M96.8404,74.2851764 C93.7574,101.612176 89.1684,128.761176 83.1614,155.596176 C82.2654,157.756176 75.4204,187.256176 75.1164,182.060176 C75.0774,181.382176 75.2134,180.032176 75.3544,179.363176 C80.6594,154.144176 86.1554,126.484176 90.7034,101.126176 C90.7044,101.126176 95.4114,74.0911764 95.4114,74.0911764 C95.5384,73.2221764 96.9564,73.3601764 96.8404,74.2851764" id="Fill-17" fill="#090E2B" blush:i="0.0.10.2.2.0.1.2"/></g><g id="Head" fill="none" transform="translate(43.000000, 0.000000) scale(1 1)" blush:width="300" blush:height="300" blush:component="Head" blush:i="0.0.10.2.2.0.2" blush:value="Curls Gray" blush:viewBox="0 55.5 262.50000000000006 264"><g id="Head/Curls Gray" stroke="none" stroke-width="1" fill="none" fill-rule="evenodd" blush:viewBox="0 55.5 262.50000000000006 264" blush:i="0.0.10.2.2.0.2.0"><path d="M209.1303,107.5764 C209.1303,107.5764 211.1113,98.2314 225.6773,99.2914 C249.2283,101.0044 253.4783,123.9904 248.0753,146.5114 C244.2703,162.3754 239.1843,174.8744 240.7863,183.6624 C243.8583,200.4974 252.5503,201.2874 259.2603,219.7534 C269.9143,249.0734 243.1013,251.2114 242.8423,256.4734 C241.5893,281.9704 233.2363,293.7004 218.5563,299.2784 C196.9123,307.5034 174.1923,296.7264 162.7063,276.6714 C153.0903,259.8794 162.7063,241.4594 162.7063,241.4594 L215.4033,190.6814 L209.1303,107.5764 Z" id="Fill-1" fill="#E3E4E6" blush:i="0.0.10.2.2.0.2.0.0"/><path d="M205.767,97.1399 C205.767,97.1399 221.196,104.7289 228.478,125.9879 C232.573,137.9419 231.011,152.6219 233.289,173.3079 C238.947,224.6639 223.805,264.7349 195.664,263.7749 C162.246,262.6339 133.329,242.6749 117.287,231.0709 C101.244,219.4649 98.301,204.9709 98.138,182.0229 C97.976,159.0749 98.811,109.7529 113.625,108.3019 C128.44,106.8519 175.746,74.3719 205.767,97.1399" id="Fill-4" fill="#09B9C6" blush:i="0.0.10.2.2.0.2.0.1"/><path d="M107.0614,192.6107 C107.0854,200.5017 138.5724,221.4117 121.8314,250.8917 C133.1984,262.7107 129.9914,309.2527 81.1124,302.6407 C59.6644,331.3287 14.1904,319.5797 19.4464,288.8517 C6.0124,286.2407 -0.5626,264.2947 1.3144,251.8917 C6.1784,219.7527 36.7984,215.7527 36.7984,215.7527 C32.9554,178.8287 66.6264,187.5857 61.9484,162.1677 C57.3234,137.0357 62.3714,102.1827 88.8184,98.0927 C92.4274,61.9707 139.0684,45.6877 171.8234,62.8627 C179.5574,55.7807 232.3524,47.4767 231.2474,95.8587 C230.8724,112.2877 218.1174,134.2907 199.5354,138.0467 C186.4244,140.6987 163.1734,136.0767 155.2004,145.8617 C144.2934,159.2467 142.4374,162.5327 125.8774,170.9817 C119.4584,174.2557 114.9164,170.9817 114.9164,170.9817 C114.9164,170.9817 107.0014,173.2507 107.0614,192.6107 Z" id="Fill-6" fill="#E3E4E6" blush:i="0.0.10.2.2.0.2.0.2"/><path d="M114.6781,200.632 C107.5681,204.795 97.8471,199.587 92.2141,195.791 C80.0061,187.565 80.4821,174.231 90.2831,167.039 C97.4451,161.785 107.4351,162.844 116.5011,170.503 C124.3141,177.104 122.7091,195.929 114.6781,200.632" id="Fill-9" fill="#09B9C6" blush:i="0.0.10.2.2.0.2.0.3"/><path d="M96.016,174.1125 C101.095,173.1825 106.796,173.8515 110.409,179.1885 C112.059,181.6275 112.088,184.4065 112.941,187.2005 C113.034,187.5055 112.054,188.2285 110.665,184.8685 C108.859,180.5015 105.591,177.7485 102.748,176.5525 C99.045,174.9965 94.592,176.0475 93.924,175.3995 C93.228,174.7245 95.448,174.2165 96.016,174.1125" id="Fill-11" fill="#000" blush:i="0.0.10.2.2.0.2.0.4"/><path d="M109.8988,183.5432 C107.3298,182.2192 102.4328,184.5862 102.2328,184.0792 C101.6118,182.5102 108.2128,179.7712 110.3798,181.5362 C111.9708,182.8322 111.7248,184.4842 109.8988,183.5432" id="Fill-13" fill="#000" blush:i="0.0.10.2.2.0.2.0.5"/><path d="M133.434,241.6965 C134.317,242.0805 139.01,244.7875 141.079,245.8885 C144.872,247.9095 148.686,249.9045 152.55,251.7265 C154.541,252.6705 159.332,254.3425 158.687,254.9035 C157.447,255.9795 146.676,251.9555 139.861,247.4625 C136.238,245.0745 131.925,241.0425 133.434,241.6965" id="Fill-15" fill="#090E2B" blush:i="0.0.10.2.2.0.2.0.6"/></g></g><g id="Expressions" fill="none" transform="translate(164.000000, 133.000000) scale(1 1)" blush:width="120" blush:height="120" blush:component="Expressions" blush:i="0.0.10.2.2.0.3" blush:value="Happy" blush:viewBox="21 10.200000000000003 89.4 91.80000000000001"><g id="Expressions/Happy" stroke="none" stroke-width="1" fill="none" fill-rule="evenodd" blush:viewBox="21 10.200000000000003 89.4 91.80000000000001" blush:i="0.0.10.2.2.0.3.0"><g id="eye1" transform="translate(21.027098, 10.213671)" blush:i="0.0.10.2.2.0.3.0.0"><path d="M0.0487023333,7.96572872 C1.82485498,-0.0171869856 25.1977023,-2.81531309 35.4827023,3.36568691 C39.0387023,5.47868691 45.6427023,11.2837287 39.7957023,14.4437287 C38.2517023,15.1157287 36.7517023,14.4267287 35.4827023,13.6077287 C21.4647023,3.86572872 -1.18942441,13.5304877 0.0487023333,7.96572872 Z" id="Fill-1" fill="#090E2B" blush:i="0.0.10.2.2.0.3.0.0.0"/><path d="M19.0113023,22.3973287 C13.7233023,23.8973287 9.19030233,28.1473287 8.76930233,31.6693287 C8.51430233,33.7973287 16.8643023,38.9063287 24.9173023,39.3033287 C35.5113023,39.8243287 40.8513023,34.0853287 40.8324531,32.2513287 C40.1193023,26.7013287 33.7283023,18.2233287 19.0113023,22.3973287 Z" id="Fill-6" fill="#FFF" blush:i="0.0.10.2.2.0.3.0.0.1"/><path d="M35.3981023,25.5550287 C27.2551023,19.4010287 14.6431023,23.4110287 8.76910233,31.6690287 C8.43210233,32.0970287 8.52910233,31.0200287 8.76310233,30.5290287 C11.5971023,24.5820287 16.7101023,21.7750287 22.6381023,20.5510287 C26.2051023,19.8140287 29.5311023,19.7540287 33.0101023,21.3120287 C34.3551023,21.9130287 36.7311023,23.7450287 38.5671023,25.8170287 C39.9991023,27.4320287 41.2051023,30.2010287 39.5481023,29.2220287 C38.2511023,28.4550287 36.4781023,26.3720287 35.3981023,25.5550287 Z" id="Fill-8" fill="#090E2B" blush:i="0.0.10.2.2.0.3.0.0.2"/><path d="M24.8135023,36.0623287 C29.3405023,36.0623287 33.0105023,32.7143287 33.0105023,28.5833287 C33.0105023,24.4533287 29.3405023,21.1043287 24.8135023,21.1043287 C20.2865023,21.1043287 16.6165023,24.4533287 16.6165023,28.5833287 C16.6165023,32.7143287 20.2865023,36.0623287 24.8135023,36.0623287 Z" id="Fill-10" fill="#090E2B" blush:i="0.0.10.2.2.0.3.0.0.3"/></g><g id="eye2" transform="translate(81.203378, 15.000183)" blush:i="0.0.10.2.2.0.3.0.1"><path d="M23.2557812,1.861246 C26.6096324,3.34897691 31.0744206,8.28711729 27.357522,8.28711729 C23.6406234,8.28711729 15.5900245,7.23270759 10.1930245,9.45970759 C8.30802454,9.94170759 6.87752199,10.8641173 4.98452199,11.0891173 C0.67652199,11.9281173 -1.66408888,6.76839233 1.38185604,3.64904337 C4.82290212,0.125071736 16.4397812,-1.545754 23.2557812,1.861246 Z" id="Fill-4" fill="#090E2B" blush:i="0.0.10.2.2.0.3.0.1.0"/><path d="M19.455322,34.2343173 C24.826322,32.9853173 28.843322,28.1153173 28.389322,24.4763173 C27.503322,19.6543173 18.218322,16.5753173 13.017322,19.2083173 C7.86632199,21.8153173 4.64332199,27.6403173 5.05932199,29.9403173 C5.66032199,31.5323173 13.966322,35.5113173 19.455322,34.2343173 Z" id="Fill-12" fill="#FFF" blush:i="0.0.10.2.2.0.3.0.1.1"/><path d="M15.011222,31.6060173 C18.549222,31.6060173 21.417222,28.8520173 21.417222,25.4560173 C21.417222,22.0590173 19.396222,18.8490173 15.011222,19.3060173 C11.492222,19.6720173 8.60422199,22.0590173 8.60422199,25.4560173 C8.60422199,28.8520173 11.473222,31.6060173 15.011222,31.6060173 Z" id="Fill-14" fill="#090E2B" blush:i="0.0.10.2.2.0.3.0.1.2"/><path d="M5.25072199,26.6376173 C7.27972199,19.0636173 16.440722,15.1686173 23.685722,18.7546173 C24.705722,19.2866173 26.361722,20.4806173 27.601722,21.9226173 C28.742722,23.2526173 28.593722,23.9496173 28.127722,23.8116173 C27.355722,23.5816173 25.722722,22.1166173 24.395722,21.4866173 C17.685722,18.3036173 10.704722,20.0896173 5.59372199,27.5586173 C5.34272199,27.9456173 5.10472199,27.0746173 5.25072199,26.6376173" id="Fill-22" fill="#090E2B" blush:i="0.0.10.2.2.0.3.0.1.3"/></g><path d="M89.773817,88.8585998 C81.203378,89.8585998 88.1482904,99.3833823 83.7083884,100.648667 C72.3411441,103.888108 60,99.9572383 58.0067117,89.8585998 C56.8303329,83.8986871 60.3418642,84.6193542 63.1467832,84.8682179 C65.9517021,85.1170816 79.8038764,85.6292987 87.244688,85.6292987 C94.4593207,85.6292987 90.833428,88.7349642 89.773817,88.8585998 Z" id="Fill-18" fill="#090E2B" blush:i="0.0.10.2.2.0.3.0.2"/><path d="M79.5163974,56.0474227 C79.9047316,56.0474227 82.4878873,60.4695558 83.4356699,62.0222568 C86.4544009,66.9676809 89.7813295,72.5049636 84.8702,75.6883 C82.4912,77.2313 75.0122,74.8407787 75.0122,73.0253 C75.0122,70.2632077 81.8382,75.1193 83.4442,72.3153 C84.3857451,70.8872578 80.8590997,63.6440183 79.5163974,59.348811 C78.7670658,56.9517537 79.1280631,56.0474227 79.5163974,56.0474227 Z" id="nose" fill="#090E2B" blush:i="0.0.10.2.2.0.3.0.3"/></g></g><g id="Facial Accesories" fill="none" transform="translate(161.000000, 183.000000) scale(1 1)" blush:width="120" blush:height="110" blush:component="Facial Accesories" blush:i="0.0.10.2.2.0.4" blush:value="None" blush:viewBox="210 192.5 0 0"><g id="Facial Accesories/None" stroke="none" stroke-width="1" fill="none" fill-rule="evenodd" fill-opacity="0" blush:viewBox="210 192.5 0 0" blush:i="0.0.10.2.2.0.4.0"/></g><g id="Glass" fill="none" transform="translate(164.000000, 138.000000) scale(1 1)" blush:width="120" blush:height="75" blush:component="Glass" blush:i="0.0.10.2.2.0.5" blush:value="None" blush:viewBox="210 131.25 0 0"><g id="Glass/None" stroke="none" stroke-width="1" fill="none" fill-rule="evenodd" fill-opacity="0" blush:viewBox="210 131.25 0 0" blush:i="0.0.10.2.2.0.5.0"/></g></g></g><path d="M49.0625,50 L49.0625,46.71875 L41.5332031,46.71875 L41.5332031,46.6455078 L48.8867188,37.0068359 L48.8867188,34.296875 L36.2158203,34.296875 L36.2158203,37.5634766 L43.9208984,37.5634766 L43.9208984,37.6513672 L36.0986328,47.5683594 L36.0986328,50 L49.0625,50 Z M58.7597656,50.3369141 C63.5058594,50.3369141 66.5380859,47.3046875 66.5380859,42.1337891 C66.5380859,37.0361328 63.4619141,33.9599609 58.7597656,33.9599609 C54.0576172,33.9599609 50.9814453,37.0507812 50.9814453,42.1337891 C50.9814453,47.2900391 54.0136719,50.3369141 58.7597656,50.3369141 Z M58.7597656,47.0703125 C56.6503906,47.0703125 55.3173828,45.2978516 55.3173828,42.1484375 C55.3173828,39.0283203 56.6796875,37.2265625 58.7597656,37.2265625 C60.8398438,37.2265625 62.1875,39.0283203 62.1875,42.1484375 C62.1875,45.2978516 60.8544922,47.0703125 58.7597656,47.0703125 Z M77.1142578,50.46875 C82.4316406,50.46875 85.6542969,46.2060547 85.6542969,39.3798828 C85.6542969,32.5537109 82.4023438,28.3789062 77.1142578,28.3789062 C71.8261719,28.3789062 68.5595703,32.5683594 68.5595703,39.3945312 C68.5595703,46.2353516 71.796875,50.46875 77.1142578,50.46875 Z M77.1142578,46.9238281 C74.5947266,46.9238281 73.0566406,44.1992188 73.0566406,39.3945312 C73.0566406,34.6337891 74.6240234,31.9238281 77.1142578,31.9238281 C79.6191406,31.9238281 81.1572266,34.6191406 81.1572266,39.3945312 C81.1572266,44.2138672 79.6337891,46.9238281 77.1142578,46.9238281 Z M95.46875,50.3369141 C100.214844,50.3369141 103.24707,47.3046875 103.24707,42.1337891 C103.24707,37.0361328 100.170898,33.9599609 95.46875,33.9599609 C90.7666016,33.9599609 87.6904297,37.0507812 87.6904297,42.1337891 C87.6904297,47.2900391 90.7226562,50.3369141 95.46875,50.3369141 Z M95.46875,47.0703125 C93.359375,47.0703125 92.0263672,45.2978516 92.0263672,42.1484375 C92.0263672,39.0283203 93.3886719,37.2265625 95.46875,37.2265625 C97.5488281,37.2265625 98.8964844,39.0283203 98.8964844,42.1484375 C98.8964844,45.2978516 97.5634766,47.0703125 95.46875,47.0703125 Z M109.72168,50 L109.72168,40.5224609 C109.72168,38.7646484 110.820312,37.5341797 112.446289,37.5341797 C114.02832,37.5341797 114.980469,38.5302734 114.980469,40.2148438 L114.980469,50 L119.09668,50 L119.09668,40.4638672 C119.09668,38.7207031 120.166016,37.5341797 121.791992,37.5341797 C123.447266,37.5341797 124.355469,38.5302734 124.355469,40.3466797 L124.355469,50 L128.632812,50 L128.632812,39.2773438 C128.632812,36.1132812 126.567383,34.0039062 123.491211,34.0039062 C121.191406,34.0039062 119.316406,35.2490234 118.613281,37.2265625 L118.525391,37.2265625 C117.998047,35.1757812 116.416016,34.0039062 114.145508,34.0039062 C112.006836,34.0039062 110.322266,35.2490234 109.663086,37.1386719 L109.575195,37.1386719 L109.575195,34.296875 L105.444336,34.296875 L105.444336,50 L109.72168,50 Z" id="zo0om" fill="#000" fill-rule="nonzero" mask="url(#mastersceneskeeping-in-touch-mask-2)" blush:i="0.0.10.2.3"/></g><rect id="Rectangle" fill="#F67A49" x="254" y="441" width="119" height="57" blush:i="0.0.10.3"/><path d="M198,498 L428,498 C436.284271,498 443,504.715729 443,513 L443,524 L443,524 L183,524 L183,513 C183,504.715729 189.715729,498 198,498 Z" id="Rectangle-Copy-4" fill="#FFB201" blush:i="0.0.10.4"/></g><g id="Chair" transform="translate(1776.000000, 1654.000000) scale(-1, 1) translate(-1776.000000, -1654.000000) translate(1476.000000, 1254.000000) scale(0.8571428571428571 1)" blush:width="600" blush:height="800" blush:component="Chair" blush:i="0.0.11" blush:value="Stool" blush:viewBox="214.15525114155253 396 271.6894977168952 403.9999999999999"><g id="Chair/Stool" stroke="none" stroke-width="1" fill="none" fill-rule="evenodd" blush:viewBox="214.15525114155253 396 271.6894977168952 403.9999999999999" blush:i="0.0.11.0"><g id="Group" transform="translate(249.000000, 425.000000)" fill="#8E2420" blush:i="0.0.11.0.0"><path d="M32,0.639462324 L21.361,173.639462 L181.639,173.639462 L171,0.639462324 L189,0.639462324 L195.476,173.639462 L196,173.639462 L196,186.639462 L195.963,186.639462 L203,374.639462 L194,374.639462 L182.439,186.639462 L20.561,186.639462 L9,374.639462 L0,374.639462 L14,0.639462324 L32,0.639462324 Z" id="Combined-Shape" blush:i="0.0.11.0.0.0"/></g><path d="M233.392254,403.051901 L352.708336,399.021055 C353.123705,399.007023 353.539436,399.00738 353.95478,399.022127 L466.638699,403.023039 C476.325148,403.366962 484,411.319151 484,421.011704 L484,430.639462 C484,440.580588 475.941125,448.639462 466,448.639462 L234,448.639462 C224.058875,448.639462 216,440.580588 216,430.639462 L216,421.041638 C216,411.337076 223.693225,403.379563 233.392254,403.051901 Z" id="Rectangle" fill="#FF0057" blush:i="0.0.11.0.1"/></g></g><g id="Clock" transform="translate(1467.000000, 353.000000)" blush:i="0.0.12"><path d="M299.456,151.596 C299.456,235.32 232.42,303.192 149.724,303.192 C67.036,303.192 -8.52651283e-13,235.32 -8.52651283e-13,151.596 C-8.52651283e-13,67.872 67.036,0 149.724,0 C232.42,0 299.456,67.872 299.456,151.596" id="Fill-1" fill="#C7D2F2" blush:i="0.0.12.0"/><path d="M283.2176,151.596 C283.2176,226.24 223.4536,286.752 149.7256,286.752 C76.0016,286.752 16.2376,226.24 16.2376,151.596 C16.2376,76.952 76.0016,16.44 149.7256,16.44 C223.4536,16.44 283.2176,76.952 283.2176,151.596" id="Fill-3" fill="#F9FAFA" blush:i="0.0.12.1"/><path d="M160.9052,151.596 C160.9052,157.844 155.9012,162.912 149.7252,162.912 C143.5532,162.912 138.5492,157.844 138.5492,151.596 C138.5492,145.344 143.5532,140.276 149.7252,140.276 C155.9012,140.276 160.9052,145.344 160.9052,151.596" id="Fill-5" fill="#C7D2F2" blush:i="0.0.12.2"/><polygon id="Fill-7" fill="#C7D2F2" points="147.194 46.1016 152.566 46.1016 152.566 21.3776 147.194 21.3776" blush:i="0.0.12.3"/><polygon id="Fill-9" fill="#C7D2F2" points="147.194 281.9576 152.566 281.9576 152.566 257.2336 147.194 257.2336" blush:i="0.0.12.4"/><polygon id="Fill-10" fill="#C7D2F2" points="254.146 154.3856 278.562 154.3856 278.562 148.9456 254.146 148.9456" blush:i="0.0.12.5"/><polygon id="Fill-11" fill="#C7D2F2" points="21.19 154.3856 45.61 154.3856 45.61 148.9456 21.19 148.9456" blush:i="0.0.12.6"/><polygon id="Fill-12" fill="#C7D2F2" points="146.9248 147.68 149.9288 61.968 152.9368 147.68" blush:i="0.0.12.7"/><polygon id="Fill-13" fill="#C7D2F2" points="146.452 153.1252 88.768 90.3172 150.704 148.8252" blush:i="0.0.12.8"/></g><g id="Floor" transform="translate(465.209230, 2052.500000)" fill="#090E2B" fill-rule="nonzero" blush:i="0.0.13"><path d="M0.00273740768,-2.99999893 L639.293507,-2.49999893 C641.226503,-2.4984871 642.79077,-0.930258626 642.79077,1.00273741 C642.79077,2.87130024 641.323836,4.39671758 639.480072,4.49497026 L639.288032,4.50000107 L-0.00273740768,4.00000107 C-1.93573344,3.9984871 -3.50000002,2.43025863 -3.50000002,0.497262592 C-3.50000002,-1.37130024 -2.03306639,-2.89671758 -0.189301787,-2.99497026 L0.00273740768,-2.99999893 Z" id="Path-4" blush:i="0.0.13.0"/><path d="M740.002105,-2.99999937 L1571.29288,-2.49999937 C1573.22587,-2.49883672 1574.79077,-0.930891115 1574.79077,1.00210516 C1574.79077,2.87066823 1573.32445,4.39635027 1571.4807,4.49493601 L1571.28866,4.50000063 L739.997895,4.00000063 C738.064899,3.99883672 736.5,2.43089112 736.5,0.49789484 C736.5,-1.37066823 737.96632,-2.89635027 739.810067,-2.99493601 L740.002105,-2.99999937 Z" id="Path-4-Copy-2" blush:i="0.0.13.1"/><path d="M2161.29077,-2.5 C2163.22377,-2.5 2164.79077,-0.932996624 2164.79077,1 C2164.79077,2.8685634 2163.32649,4.39512645 2161.48281,4.49482114 L2161.29077,4.5 L1875.29077,4.5 C1873.35777,4.5 1871.79077,2.93299662 1871.79077,1 C1871.79077,-0.868563404 1873.25505,-2.39512645 1875.09873,-2.49482114 L1875.29077,-2.5 L2161.29077,-2.5 Z" id="Path-4-Copy-3" blush:i="0.0.13.2"/><path d="M0.00273740768,-2.99999893 L639.293507,-2.49999893 C641.226503,-2.4984871 642.79077,-0.930258626 642.79077,1.00273741 C642.79077,2.87130024 641.323836,4.39671758 639.480072,4.49497026 L639.288032,4.50000107 L-0.00273740768,4.00000107 C-1.93573344,3.9984871 -3.50000002,2.43025863 -3.50000002,0.497262592 C-3.50000002,-1.37130024 -2.03306639,-2.89671758 -0.189301787,-2.99497026 L0.00273740768,-2.99999893 Z" id="Path-4-Copy" blush:i="0.0.13.3"/></g><g id="Medium Plants" transform="translate(213.000000, 1254.000000) scale(1 1)" blush:width="845" blush:height="800" blush:component="Medium Plants" blush:i="0.0.14" blush:value="Plant 1" blush:viewBox="274.625 296.4059196617337 299.9749999999998 507.399577167019"><g id="Medium Plants/Plant 1" stroke="none" stroke-width="1" fill="none" fill-rule="evenodd" blush:viewBox="274.625 296.4059196617337 299.9749999999998 507.399577167019" blush:i="0.0.14.0"><g id="Group" transform="translate(277.000000, 297.000000)" blush:i="0.0.14.0.0"><path d="M79.3649352,206.473842 C50.7765177,148.413459 23.0301485,127.298886 14.224871,120.516751 C22.3530117,136.794627 86.5510811,322.095424 95.4325678,370.613777 C65.6285523,311.882812 50.2617937,299.195552 44.704774,293.481844 C29.6640906,278.015923 10.8379374,267.027638 0,261.60168 C4.7449552,268.191148 60.2839187,334.857749 79.9271337,393.190868 L95.5062783,421 L173.400752,421 C173.400752,421 181.528893,393.98781 194.398241,382.057457 C207.267589,370.128355 255.765344,310.408958 263.216347,275.138351 C245.238684,295.953189 188.070874,370.128355 177.900839,382.057457 C202.963647,311.117148 206.726531,304.563028 228.145043,265.22264 C249.563556,225.881001 293.968589,168.279448 296,166.923271 C272.969851,179.132616 205.258042,221.800132 173.147138,306.330171 C159.728386,341.654237 155.521591,364.150668 155.521591,364.150668 C155.521591,364.150668 170.023969,293.547719 169.345583,224.361432 C168.668446,155.175144 173.400752,0 173.400752,0 C173.400752,0 142.526988,54.1850727 131.085715,142.024766 C126.854637,174.508618 123.28513,307.941892 124.639404,340.219902 C124.639404,340.219902 107.121299,262.844008 79.3649352,206.473842 Z" id="Fill-1" fill="#009BA0" blush:i="0.0.14.0.0.0"/><path d="M178.622375,503 L88.8828152,503 C75.6927553,503 65,484.764466 65,471.532066 L65,382 L205,382 L205,469.029248 C205,483.583136 193.129694,503 178.622375,503" id="Fill-4" fill="#FFB201" blush:i="0.0.14.0.0.1"/></g></g></g></g><g transform="translate(1689.000000, 1307.000000) scale(-1, 1) translate(-1689.000000, -1307.000000) translate(1134.000000, 557.000000) scale(1 1)" blush:has-customizable-colors="true" blush:width="1110" blush:height="1500" id="Master/Character/Sitting" blush:component="Master/Character/Sitting" blush:i="0.1" blush:value="Sitting" blush:viewBox="300 397.5 674.9999999999999 1102.4999999999998"><g id="Master/Character/Sitting" stroke="none" stroke-width="1" fill="none" fill-rule="evenodd" blush:has-customizable-colors="true" blush:viewBox="300 397.5 674.9999999999999 1102.4999999999998" blush:i="0.1.0"><g id="Sitting" transform="translate(179.000000, 940.000000) scale(1 1)" blush:width="752" blush:height="560" blush:component="Sitting" blush:i="0.1.0.0" blush:value="On Chair 3" blush:viewBox="176.72000000000003 -36.12903225806457 616.6399999999999 594.6236559139786"><g id="Sitting/On Chair 3" stroke="none" stroke-width="1" fill="none" fill-rule="evenodd" blush:viewBox="176.72000000000003 -36.12903225806457 616.6399999999999 594.6236559139786" blush:i="0.1.0.0.0"><path d="M410.615323,399.49997 C410.615323,399.49997 400.357969,471.949685 396.171539,502.905682 C391.949971,534.125643 467.0487,503.736716 467.0487,503.736716 C467.0487,503.736716 453.509565,484.44329 453.304761,479.157997 C453.100961,473.870697 476.218696,412 476.218696,412 L410.615323,399.49997 Z" id="Fill-3" fill="#ff8282" blush:color="Skin-500" blush:i="0.1.0.0.0.0"/><path d="M561.035706,7.46069873e-14 C597.897949,16.8477074 635.153618,59.3884812 602.589029,139.128809 C570.024441,218.869137 493.394303,411.87247 481.349448,420.555326 C469.305594,429.239182 405.784608,412 405.784608,412 C405.784608,412 412.732597,330.944505 426.534884,251.242608 C436.641716,192.880271 457.952435,150.325862 457.952435,150.325862 C457.952435,150.325862 286.540837,174.784268 243.98254,146.076381 C188.124727,108.397247 229.480836,6.86053872 261.586066,-5.71064401 C302.858588,-21.8713886 490.854841,-32.0758202 561.035706,7.46069873e-14 Z" id="Fill-5" fill="#F67A49" blush:i="0.1.0.0.0.1"/><path d="M559.105053,537.550495 C553.718837,520.869499 514.662001,509.852921 486.4598,501.514412 C476.966506,498.70607 463.702961,484.835405 457.545853,485.001479 C448.581857,485.24512 457.367415,503.898122 427.362791,502.274176 C419.4193,501.844571 418.851908,493.484184 401.591555,491.580796 C398.786673,491.272515 394.499152,490.727553 390.796066,497.394383 C388.732001,501.110663 380.282268,534.66359 388.577622,548.345309 C446.664152,549.845942 506.41276,548.363209 558.020392,547.881892 C563.059757,547.834159 560.482433,541.818697 559.105053,537.550495" id="Fill-17" fill="#FF0057" blush:i="0.1.0.0.0.2"/><path d="M654.970564,412 C654.970564,412 665.530533,466.509706 672.596211,475.377601 C679.662889,484.243493 716.32892,494.221378 717.974942,499.698195 C719.618961,505.175012 639.820958,518 639.820958,518 L591,416.698422 L654.970564,412 Z" id="Fill-1" fill="#ff8282" blush:color="Skin-500" blush:i="0.1.0.0.0.3"/><path d="M790.105053,534.5497 C784.718837,517.869641 745.662001,506.853025 717.4598,498.513492 C707.966506,495.706135 694.702961,481.834427 688.545853,482.001496 C679.581857,482.244144 688.367415,500.898205 658.362791,499.274253 C650.420302,498.844647 649.85291,490.483237 632.591555,488.580837 C629.786673,488.27156 625.499152,487.727591 621.796066,494.393449 C619.732001,498.109742 611.282268,531.662786 619.577622,545.345546 C677.664152,546.846185 737.41276,545.362452 789.020392,544.881134 C794.059757,544.8334 791.482433,538.817918 790.105053,534.5497" id="Fill-10" fill="#FF0057" blush:i="0.1.0.0.0.4"/><path d="M722.704751,510.429527 C726.392384,503.004274 728.005104,501.713139 726.433049,500.543939 C722.673012,497.748284 703.571309,506.385021 702.069675,511.523009 C700.944937,515.373796 713.664197,504.228541 723.820563,502.565701 C719.658833,506.366337 715.778784,518.019983 719.874061,515.696334 C739.826756,504.381943 742.973841,507.006496 742.998637,506.585624 C743.116665,504.585496 735.565843,502.966906 722.704751,510.429527" id="Fill-15" fill="#FFB201" blush:i="0.1.0.0.0.5"/><path d="M180.126096,77 C192.090433,138.955221 247.290014,161.21191 295.189049,159.361921 C368.355288,156.536045 442.938988,124.042498 468.151215,113.183029 C465.930109,129.164147 477.804596,220.024734 497.628146,262.074146 C517.451696,304.123559 582.008895,430.623213 582.008895,430.623213 C582.008895,430.623213 654.850327,431.050084 657.965073,413.369038 C660.014248,401.737852 591.630112,76.8494703 569.008895,20.5961921 C556.018259,-11.7082512 513.975789,-25.6487365 427.5,-33 C340.646127,-40.3834042 214.030282,-26.7715765 214.030282,-26.7715765 C214.030282,-26.7715765 168.16176,15.0447792 180.126096,77 Z" id="Fill-7" fill="#FFB201" blush:i="0.1.0.0.0.6"/><path d="M491.704751,514.429893 C495.392384,507.004835 497.005104,505.713735 495.432058,504.543583 C491.67202,501.748984 472.571309,510.385493 471.069675,515.522362 C469.944937,519.373048 482.664197,508.228087 492.820563,506.566274 C488.658833,510.36681 484.777792,522.019165 488.874061,519.69656 C508.826756,508.381485 511.973841,511.005969 511.998637,510.585107 C512.116665,508.585032 504.565843,506.966486 491.704751,514.429893" id="Fill-22" fill="#FFB201" blush:i="0.1.0.0.0.7"/><path d="M546.8316,554.3915 L407.0166,556.8575 C397.6626,557.2315 383.6706,554.0145 382.3176,546.2435 C381.3066,540.4375 383.5546,527.7955 384.0206,526.9545 C387.2776,521.0945 415.0326,526.0385 423.1176,545.8275 C474.1316,549.6495 561.0086,545.9125 561.0086,545.9125 C561.0086,545.9125 562.3126,553.5935 546.8316,554.3915" id="Fill-19" fill="#090E2B" blush:i="0.1.0.0.0.8"/><path d="M777.7223,550.7851 L637.9073,553.2511 C628.5543,553.6251 614.5613,550.4091 613.2083,542.6381 C612.1983,536.8321 614.4453,524.1901 614.9123,523.3491 C618.1683,517.4891 645.9233,522.4331 654.0083,542.2221 C705.0223,546.0441 791.9003,542.3071 791.9003,542.3071 C791.9003,542.3071 793.2033,549.9881 777.7223,550.7851" id="Fill-12" fill="#090E2B" blush:i="0.1.0.0.0.9"/></g></g><g id="Upper Body/Sitting" transform="translate(243.000000, 170.000000) scale(1 1.0010526315789474)" blush:width="600" blush:height="951" blush:component="Upper Body/Sitting" blush:i="0.1.0.1" blush:value="Hands Up 1" blush:viewBox="0.9493670886075734 -4.75 488.92405063291136 821.7500000000002"><g id="Upper Body/Sitting/Hands Up 1" stroke="none" stroke-width="1" fill="none" fill-rule="evenodd" blush:viewBox="0.9493670886075734 -4.75 488.92405063291136 821.7500000000002" blush:i="0.1.0.1.0"><path d="M386.80649,167.842661 C386.80649,167.842661 419.924998,96.8221466 423.08097,89.7424957 C435.567632,61.7317223 426.329949,63.8038774 429.60891,47.8882704 C433.301614,29.9733458 427.673114,20.8264885 429.60891,19.6944412 C440.610069,13.2648517 442.988589,38.7833778 444.437688,34.071343 C449.296667,18.2826292 458.094195,13.1489492 463.278971,7.36781402 C470.159692,-0.303730375 481.969348,12.81523 485.00446,16.3552511 C491.906168,24.4044777 488.490292,40.3627117 485.00446,53.5216384 C477.531108,81.7309004 463.826209,77.6120707 452.204436,100.552766 C447.9291,108.99167 438.017059,159.425678 423.08097,209.763492 C397.412354,296.272216 361.897039,398.031571 350.694898,398.031571 C338.243741,398.031571 300.809412,400.210537 297.566876,398.031571 C292.43225,394.581131 322.178789,317.851495 386.80649,167.842661 Z" id="hand-2" fill="#ff8282" blush:color="Skin-500" blush:i="0.1.0.1.0.0"/><path d="M267.588011,480.133487 C263.343107,471.907325 245.913227,454.395032 252.450913,442.212308 C258.988599,430.030576 280.58439,438.589588 283.792507,444.037042 C302.005408,474.959445 275.077567,494.648145 267.588011,480.133487" id="t-4" fill="#FF0057" blush:i="0.1.0.1.0.1"/><path d="M61.8588561,226.851213 C61.8588561,226.851213 53.9575274,101.190291 48.4357774,83.7300706 C42.9130263,66.2708496 40.9614628,68.3836502 25.7125835,55.6677724 C8.06120231,40.9460181 8.84176992,32.9800579 11.5762911,31.9429763 C19.3864408,35.1211392 -7.73304049,5.26888534 12.9545726,0.232184711 C40.2432882,-6.41165045 43.21434,15.7951213 56.6253055,19.6529605 C58.9317072,20.3155893 52.8914172,9.61058524 58.0608003,4.3375387 C63.4904545,-1.20135894 63.8268047,7.65068299 66.052122,11.2006946 C72.7310771,21.8487306 77.6522017,40.7531422 77.6522017,52.4695797 C77.6522017,68.0928291 116.453607,193.336679 116.453607,193.336679 C143.583733,321.1908 155.183934,387.405409 151.254211,391.980509 C135.549054,410.264918 108.96651,415.514299 101.75982,418.965904 C98.1495126,420.69504 84.8491912,356.65681 61.8588561,226.851213 Z" id="hand-1" fill="#ff8282" blush:color="Skin-500" blush:i="0.1.0.1.0.2"/><path d="M214.712995,398 C214.712995,398 213.881817,427.599337 208.193919,443.472803 C205.002024,452.380564 189.321889,446.288429 197.178278,464.198077 C211.5211,496.894385 270.541109,538.913797 281.692563,528.334893 C292.841653,517.759062 310.629214,512.779291 297.172344,480.008121 C295.434745,475.778389 265.862778,460.511381 264.490937,455.918414 C255.920186,427.238888 266.61233,398 266.61233,398 L214.712995,398 Z" id="neck" fill="#ff8282" blush:color="Skin-500" blush:i="0.1.0.1.0.3"/><g id="tshirt" transform="translate(52.000000, 151.000000)" fill="#FF0057" blush:i="0.1.0.1.0.4"><path d="M280.213721,105.528538 C295.457321,67.6228011 328.287344,25.9722546 325.304393,14.5177703 C322.321443,3.06328592 327.306872,-0.0397483352 331.532193,1 C339.916957,3.06328592 370.7207,17.0958236 381.0077,22.2388236 C391.2947,27.3828236 386.1517,33.3838236 386.1517,33.3838236 C386.1517,33.3838236 355.205809,120.226593 346.479399,147.882824 C325.304393,214.991844 307.488611,264.097331 295.155027,292.312036 C280.836988,325.066443 280.213721,364.017529 280.213721,364.017529 C280.213721,364.017529 234.592728,362.268392 237.299269,336 C240.435735,305.558968 209.246583,301.068667 209.246583,284.293633 C209.246583,265.700454 264.970121,143.434275 280.213721,105.528538 Z" id="t-3" blush:i="0.1.0.1.0.4.0"/><path d="M218.057498,356.726098 C236.35046,354.646966 229.144391,316.111887 229.144391,316.111887 C229.144391,316.111887 253.732874,330.203285 269.710874,333.757285 C269.710874,356.444285 305.313652,384.127106 302.376,431.569461 C299.438348,479.011817 270.783107,533.587824 290.141688,565.369688 C294.238519,572.095643 295.90195,581.449733 290.141688,584.392928 C269.710874,594.832014 189.682788,603.988175 116.802634,638.236461 C106.337797,643.154161 60.8744197,671.161113 57.1046045,662 C44.3459889,630.995 100.559,623.973424 106.367,484.705424 C108.708,428.583424 77.211,381.492424 76.017,365.969424 C74.823,350.447424 78.405,347.461424 96.315,327.163424 C114.227,306.864424 122.897,246.884424 133.699,267.138424 C144.501,287.391424 161.449,289.995424 167.958,328.357424 C167.958,328.357424 209.509083,357.69769 218.057498,356.726098 Z" id="t-2" blush:i="0.1.0.1.0.4.1"/><path d="M0,52.6924236 C0,52.6924236 25.846,27.8874236 51.775,23.9984236 C77.706,20.1084236 69.85,28.7884236 69.85,28.7884236 C69.85,28.7884236 95.402,202.823424 116.146,236.533424 C136.891,270.242424 143.151,283.340424 143.151,283.340424 L79.775,377.169424 C79.775,377.169424 33.77,300.302424 31.176,249.738424 C28.583,199.173424 25.315,181.545424 20.129,163.393424 C14.943,145.243424 2.593,78.6234236 0,52.6924236" id="t-1" blush:i="0.1.0.1.0.4.2"/></g></g></g><g id="Head" transform="translate(341.000000, 346.000000) scale(1 1)" blush:width="300" blush:height="300" blush:component="Head" blush:i="0.1.0.2" blush:value="Curls Dark" blush:viewBox="0 55.5 262.50000000000006 264"><g id="Head/Curls Dark" stroke="none" stroke-width="1" fill="none" fill-rule="evenodd" blush:viewBox="0 55.5 262.50000000000006 264" blush:i="0.1.0.2.0"><path d="M209.1303,107.5764 C209.1303,107.5764 211.1113,98.2314 225.6773,99.2914 C249.2283,101.0044 253.4783,123.9904 248.0753,146.5114 C244.2703,162.3754 239.1843,174.8744 240.7863,183.6624 C243.8583,200.4974 252.5503,201.2874 259.2603,219.7534 C269.9143,249.0734 243.1013,251.2114 242.8423,256.4734 C241.5893,281.9704 233.2363,293.7004 218.5563,299.2784 C196.9123,307.5034 174.1923,296.7264 162.7063,276.6714 C153.0903,259.8794 162.7063,241.4594 162.7063,241.4594 L215.4033,190.6814 L209.1303,107.5764 Z" id="Fill-1" fill="#090E2B" blush:i="0.1.0.2.0.0"/><path d="M205.767,97.1399 C205.767,97.1399 221.196,104.7289 228.478,125.9879 C232.573,137.9419 231.011,152.6219 233.289,173.3079 C238.947,224.6639 223.805,264.7349 195.664,263.7749 C162.246,262.6339 133.329,242.6749 117.287,231.0709 C101.244,219.4649 98.301,204.9709 98.138,182.0229 C97.976,159.0749 98.811,109.7529 113.625,108.3019 C128.44,106.8519 175.746,74.3719 205.767,97.1399" id="Fill-4" fill="#ff8282" blush:color="Skin-500" blush:i="0.1.0.2.0.1"/><path d="M107.0614,192.6107 C107.0854,200.5017 138.5724,221.4117 121.8314,250.8917 C133.1984,262.7107 129.9914,309.2527 81.1124,302.6407 C59.6644,331.3287 14.1904,319.5797 19.4464,288.8517 C6.0124,286.2407 -0.5626,264.2947 1.3144,251.8917 C6.1784,219.7527 36.7984,215.7527 36.7984,215.7527 C32.9554,178.8287 66.6264,187.5857 61.9484,162.1677 C57.3234,137.0357 62.3714,102.1827 88.8184,98.0927 C92.4274,61.9707 139.0684,45.6877 171.8234,62.8627 C179.5574,55.7807 232.3524,47.4767 231.2474,95.8587 C230.8724,112.2877 218.1174,134.2907 199.5354,138.0467 C186.4244,140.6987 163.1734,136.0767 155.2004,145.8617 C144.2934,159.2467 142.4374,162.5327 125.8774,170.9817 C119.4584,174.2557 114.9164,170.9817 114.9164,170.9817 C114.9164,170.9817 107.0014,173.2507 107.0614,192.6107 Z" id="Fill-6" fill="#090E2B" blush:i="0.1.0.2.0.2"/><path d="M114.6781,200.632 C107.5681,204.795 97.8471,199.587 92.2141,195.791 C80.0061,187.565 80.4821,174.231 90.2831,167.039 C97.4451,161.785 107.4351,162.844 116.5011,170.503 C124.3141,177.104 122.7091,195.929 114.6781,200.632" id="Fill-9" fill="#ff8282" blush:color="Skin-500" blush:i="0.1.0.2.0.3"/><path d="M96.016,174.1125 C101.095,173.1825 106.796,173.8515 110.409,179.1885 C112.059,181.6275 112.088,184.4065 112.941,187.2005 C113.034,187.5055 112.054,188.2285 110.665,184.8685 C108.859,180.5015 105.591,177.7485 102.748,176.5525 C99.045,174.9965 94.592,176.0475 93.924,175.3995 C93.228,174.7245 95.448,174.2165 96.016,174.1125" id="Fill-11" fill="#000" blush:i="0.1.0.2.0.4"/><path d="M109.8988,183.5432 C107.3298,182.2192 102.4328,184.5862 102.2328,184.0792 C101.6118,182.5102 108.2128,179.7712 110.3798,181.5362 C111.9708,182.8322 111.7248,184.4842 109.8988,183.5432" id="Fill-13" fill="#000" blush:i="0.1.0.2.0.5"/><path d="M133.434,241.6965 C134.317,242.0805 139.01,244.7875 141.079,245.8885 C144.872,247.9095 148.686,249.9045 152.55,251.7265 C154.541,252.6705 159.332,254.3425 158.687,254.9035 C157.447,255.9795 146.676,251.9555 139.861,247.4625 C136.238,245.0745 131.925,241.0425 133.434,241.6965" id="Fill-15" fill="#090E2B" blush:i="0.1.0.2.0.6"/></g></g><g id="Expressions" transform="translate(462.000000, 479.000000) scale(1 1)" blush:width="120" blush:height="120" blush:component="Expressions" blush:i="0.1.0.3" blush:value="Relaxed" blush:viewBox="22.799999999999997 15.599999999999994 85.80000000000001 91.80000000000001"><g id="Expressions/Relaxed" stroke="none" stroke-width="1" fill="none" fill-rule="evenodd" blush:viewBox="22.799999999999997 15.599999999999994 85.80000000000001 91.80000000000001" blush:i="0.1.0.3.0"><path d="M93.917,85.9779 C78.288,85.3499 67.34,84.9099 56.819,84.4879 C53.549,84.3559 50.673,90.0739 56.294,97.5689 C64.259,108.1889 84.891,111.8759 93.281,99.0539 C97.555,92.5239 97.31,86.1149 93.917,85.9779" id="Fill-1" fill="#FFF" blush:i="0.1.0.3.0.0"/><path d="M82.7872,55.7084 C86.8282,59.4834 96.9612,74.6464 87.8282,76.8394 C85.9422,77.2914 77.3212,77.5114 78.5922,75.6374 C79.6052,74.1434 85.9772,75.0244 86.8982,72.1854 C88.1082,68.4554 83.7122,61.1524 80.9722,56.1434 C80.5012,55.2804 82.1522,54.9674 82.7872,55.7084" id="nose" fill="#090E2B" blush:i="0.1.0.3.0.1"/><path d="M63.2787643,47.5005595 C63.8977643,55.1465595 54.2727643,60.0135595 46.1077643,56.1935595 C41.9017643,54.2275595 39.7587643,51.2665595 40.7837643,50.0295595 C41.4397643,49.2375595 43.3107643,50.3635595 43.9337643,50.7335595 C52.2097643,55.6545595 58.7657643,51.2125595 60.7667643,46.8055595 C61.5487643,45.0855595 63.0797643,45.0435595 63.2787643,47.5005595 Z M104.514164,42.1987595 C103.866164,45.3027595 102.660164,46.8727595 101.140164,47.9767595 C96.7091643,51.1937595 89.4801643,47.9737595 88.0981643,45.0087595 C87.0641643,42.7917595 88.5051643,42.7377595 90.1931643,43.7887595 C92.8701643,45.4587595 95.4171643,45.8007595 97.1021643,45.4817595 C100.340164,44.8707595 101.879164,41.6127595 103.045164,40.2707595 C103.679164,39.5417595 105.019164,39.7827595 104.514164,42.1987595 Z" id="eye" fill="#090E2B" transform="translate(72.577838, 48.716394) rotate(3.000000) translate(-72.577838, -48.716394)" blush:i="0.1.0.3.0.2"/><path d="M62.79355,24.2519929 C66.09155,27.4989929 65.39755,33.0019929 61.13355,31.9079929 C49.32655,25.7259929 38.64055,24.0389929 28.38555,32.9259929 C24.70055,36.1199929 22.78655,33.4669929 23.96555,30.1789929 C24.80555,27.8369929 28.41655,23.5259929 31.44155,21.8919929 C41.35255,16.5349929 55.59955,17.1699929 62.79355,24.2519929 Z M106.56795,16.9292929 C108.41995,18.3412929 109.65195,21.1502929 106.65095,21.9192929 C105.57695,22.1952929 94.27495,18.5422929 86.72495,27.4442929 C85.02995,29.4432929 81.19395,28.9722929 81.57395,25.6042929 C82.55195,16.9622929 97.18895,9.78229286 106.56795,16.9292929 Z" id="eybrow" fill="#090E2B" transform="translate(66.040205, 24.189369) rotate(3.000000) translate(-66.040205, -24.189369)" blush:i="0.1.0.3.0.3"/></g></g><g id="Facial Accesories" transform="translate(459.000000, 529.000000) scale(1 1)" fill="#000" blush:width="120" blush:height="110" blush:component="Facial Accesories" blush:i="0.1.0.4" blush:value="None" blush:viewBox="210 192.5 0 0"><g id="Facial Accesories/None" stroke="none" stroke-width="1" fill="none" fill-rule="evenodd" fill-opacity="0" blush:viewBox="210 192.5 0 0" blush:i="0.1.0.4.0"/></g><g id="Glass" transform="translate(462.000000, 484.000000) scale(1 1)" fill="#000" blush:width="120" blush:height="75" blush:component="Glass" blush:i="0.1.0.5" blush:value="None" blush:viewBox="210 131.25 0 0"><g id="Glass/None" stroke="none" stroke-width="1" fill="none" fill-rule="evenodd" fill-opacity="0" blush:viewBox="210 131.25 0 0" blush:i="0.1.0.5.0"/></g></g></g></g></svg>